<?xml version="1.0" encoding="UTF-8"?>
<svg xmlns="http://www.w3.org/2000/svg" xmlns:xlink="http://www.w3.org/1999/xlink" width="24pt" height="24pt" viewBox="0 0 24 24" version="1.1">
<g id="surface350">
<path style=" stroke:none;fill-rule:nonzero;fill:rgb(0.784314%,74.901961%,85.882353%);fill-opacity:1;" d="M 2.898438 0.300781 C 1.46875 0.300781 0.300781 1.46875 0.300781 2.898438 L 0.300781 21.101562 C 0.300781 22.53125 1.46875 23.699219 2.898438 23.699219 L 21.101562 23.699219 C 22.53125 23.699219 23.699219 22.53125 23.699219 21.101562 L 23.699219 2.898438 C 23.699219 1.46875 22.53125 0.300781 21.101562 0.300781 Z M 4.726562 6.394531 L 8.101562 6.394531 C 11.089844 6.394531 11.59375 8.230469 11.59375 9.398438 C 11.59375 11.089844 10.429688 11.625 10.171875 11.757812 C 10.429688 11.886719 11.757812 12.242188 11.757812 14.195312 C 11.886719 16.535156 10.425781 17.445312 8.34375 17.445312 L 4.726562 17.445312 Z M 13.828125 6.394531 L 18.621094 6.394531 L 18.621094 7.695312 L 13.828125 7.695312 Z M 6.921875 8.222656 L 6.921875 10.945312 L 8.101562 10.945312 C 8.882812 10.945312 9.398438 10.683594 9.398438 9.644531 C 9.398438 8.734375 9.007812 8.222656 8.101562 8.222656 Z M 16.671875 9.15625 C 18.488281 9.15625 19.800781 10.1875 19.800781 13.179688 L 19.800781 14.070312 L 15.371094 14.070312 C 15.371094 14.464844 15.398438 15.898438 16.957031 15.898438 C 17.996094 15.898438 18.484375 15.386719 18.742188 15.128906 L 19.679688 16.429688 C 19.546875 16.558594 18.648438 17.605469 16.957031 17.605469 C 15.007812 17.605469 13.421875 16.558594 13.421875 13.828125 L 13.421875 13.179688 C 13.421875 10.1875 14.980469 9.15625 16.671875 9.15625 Z M 16.429688 10.820312 C 16.039062 10.820312 15.25 10.96875 15.25 12.527344 L 17.445312 12.527344 C 17.445312 12.527344 17.726562 10.820312 16.429688 10.820312 Z M 6.921875 12.648438 L 6.921875 15.65625 L 8.34375 15.65625 C 9.125 15.65625 9.523438 15.101562 9.523438 14.195312 C 9.652344 13.152344 9.289062 12.648438 8.507812 12.648438 Z M 6.921875 12.648438 "/>
</g>
</svg>
